<?xml version="1.0" encoding="utf-8"?>
<svg id="logo-48" class="gradient" width="153" height="38" viewBox="0 2.14 34.742 35.86" fill="none" xmlns="http://www.w3.org/2000/svg">
  <path d="M24.6091 19.0252C25.8577 17.9796 26.6517 16.4091 26.6517 14.6531C26.6517 12.8972 25.8577 11.3267 24.6091 10.2811C24.7522 10.2118 24.8899 10.1366 25.0211 10.0551C25.8493 9.54014 26.8268 9.24274 27.8738 9.24274C30.8619 9.24274 33.2842 11.6651 33.2842 14.6531C33.2842 17.6412 30.8619 20.0635 27.8738 20.0635C26.8268 20.0635 25.8493 19.7661 25.0211 19.2512C24.8899 19.1697 24.7522 19.0945 24.6091 19.0252Z" fill="url(#logo480_linear_1501_1254)"/>
  <path d="M23.1065 15.5049C23.665 13.9751 23.5674 12.218 22.6894 10.6973C21.8114 9.1766 20.3385 8.21351 18.7344 7.9323C18.8237 7.80077 18.9053 7.66678 18.9781 7.5306C19.4379 6.67055 20.1358 5.92422 21.0425 5.40072C23.6303 3.90668 26.9393 4.79331 28.4333 7.38106C29.9273 9.96882 29.0407 13.2778 26.4529 14.7718C25.5462 15.2953 24.5509 15.5265 23.5762 15.4947C23.4219 15.4896 23.265 15.4934 23.1065 15.5049Z" fill="url(#logo481_linear_1501_1254)"/>
  <path d="M20.0447 13.2075C19.7635 11.6034 18.8004 10.1305 17.2797 9.25252C15.759 8.37454 14.0019 8.27694 12.4721 8.83545C12.4837 8.67691 12.4874 8.52004 12.4823 8.36572C12.4505 7.39099 12.6817 6.39571 13.2052 5.48897C14.6993 2.90122 18.0082 2.01459 20.596 3.50863C23.1837 5.00267 24.0704 8.31162 22.5763 10.8994C22.0528 11.8061 21.3065 12.504 20.4464 12.9638C20.3103 13.0366 20.1763 13.1182 20.0447 13.2075Z" fill="url(#logo482_linear_1501_1254)"/>
  <path d="M16.2442 12.7488C15.1986 11.5002 13.6281 10.7062 11.8721 10.7062C10.1161 10.7062 8.54564 11.5002 7.50005 12.7488C7.43079 12.6057 7.35557 12.468 7.27404 12.3368C6.7591 11.5086 6.4617 10.5311 6.4617 9.48408C6.4617 6.49599 8.88402 4.07367 11.8721 4.07367C14.8602 4.07367 17.2825 6.49599 17.2825 9.48408C17.2825 10.5311 16.9851 11.5086 16.4702 12.3368C16.3886 12.468 16.3134 12.6057 16.2442 12.7488Z" fill="url(#logo483_linear_1501_1254)"/>
  <path d="M12.7231 14.2516C11.1933 13.6931 9.43617 13.7907 7.91546 14.6686C6.39475 15.5466 5.43166 17.0195 5.15046 18.6236C5.01893 18.5343 4.88493 18.4527 4.74875 18.3799C3.8887 17.9201 3.14237 17.2222 2.61887 16.3155C1.12482 13.7277 2.01145 10.4188 4.59921 8.92474C7.18697 7.43069 10.4959 8.31732 11.99 10.9051C12.5135 11.8118 12.7447 12.8071 12.7128 13.7818C12.7078 13.9361 12.7115 14.093 12.7231 14.2516Z" fill="url(#logo484_linear_1501_1254)"/>
  <path d="M10.4247 17.3136C8.82056 17.5948 7.34767 18.5579 6.46969 20.0786C5.59171 21.5993 5.49411 23.3564 6.05263 24.8862C5.89407 24.8746 5.73718 24.8709 5.58284 24.8759C4.60812 24.9078 3.61284 24.6766 2.70611 24.1531C0.118349 22.659 -0.768282 19.3501 0.72576 16.7623C2.2198 14.1746 5.52875 13.2879 8.11651 14.782C9.02324 15.3055 9.72111 16.0518 10.1809 16.9118C10.2537 17.048 10.3354 17.182 10.4247 17.3136Z" fill="url(#logo485_linear_1501_1254)"/>
  <path d="M9.96509 21.1144C8.71649 22.16 7.92246 23.7305 7.92246 25.4864C7.92246 27.2424 8.71649 28.8129 9.96509 29.8585C9.822 29.9277 9.68428 30.003 9.55314 30.0845C8.72493 30.5994 7.74739 30.8968 6.70038 30.8968C3.7123 30.8968 1.28998 28.4745 1.28998 25.4864C1.28998 22.4983 3.7123 20.076 6.70038 20.076C7.74739 20.076 8.72493 20.3734 9.55314 20.8884C9.68428 20.9699 9.822 21.0451 9.96509 21.1144Z" fill="url(#logo486_linear_1501_1254)"/>
  <path d="M11.4674 24.6356C10.9088 26.1654 11.0064 27.9225 11.8844 29.4432C12.7624 30.964 14.2353 31.927 15.8394 32.2082C15.7501 32.3398 15.6685 32.4738 15.5957 32.61C15.1359 33.47 14.438 34.2163 13.5313 34.7398C10.9435 36.2339 7.63456 35.3472 6.14052 32.7595C4.64647 30.1717 5.53311 26.8628 8.12086 25.3687C9.0276 24.8452 10.0229 24.614 10.9976 24.6459C11.1519 24.6509 11.3088 24.6472 11.4674 24.6356Z" fill="url(#logo487_linear_1501_1254)"/>
  <path d="M14.5293 26.934C14.8105 28.5381 15.7736 30.011 17.2943 30.8889C18.815 31.7669 20.5722 31.8645 22.102 31.306C22.0904 31.4646 22.0867 31.6214 22.0917 31.7758C22.1236 32.7505 21.8924 33.7458 21.3689 34.6525C19.8748 37.2403 16.5659 38.1269 13.9781 36.6328C11.3903 35.1388 10.5037 31.8299 11.9978 29.2421C12.5213 28.3354 13.2676 27.6375 14.1276 27.1777C14.2638 27.1049 14.3978 27.0232 14.5293 26.934Z" fill="url(#logo488_linear_1501_1254)"/>
  <path d="M18.3301 27.3936C19.3757 28.6422 20.9462 29.4362 22.7022 29.4362C24.4582 29.4362 26.0287 28.6422 27.0743 27.3936C27.1435 27.5367 27.2187 27.6744 27.3003 27.8055C27.8152 28.6337 28.1126 29.6113 28.1126 30.6583C28.1126 33.6464 25.6903 36.0687 22.7022 36.0687C19.7141 36.0687 17.2918 33.6464 17.2918 30.6583C17.2918 29.6113 17.5892 28.6337 18.1041 27.8055C18.1857 27.6744 18.2609 27.5367 18.3301 27.3936Z" fill="url(#logo489_linear_1501_1254)"/>
  <path d="M21.8514 25.8913C23.3812 26.4498 25.1383 26.3522 26.659 25.4743C28.1797 24.5963 29.1428 23.1234 29.424 21.5193C29.5555 21.6085 29.6895 21.6902 29.8257 21.763C30.6858 22.2228 31.4321 22.9207 31.9556 23.8274C33.4497 26.4152 32.563 29.7241 29.9753 31.2182C27.3875 32.7122 24.0786 31.8256 22.5845 29.2378C22.061 28.3311 21.8298 27.3358 21.8616 26.3611C21.8667 26.2068 21.863 26.0499 21.8514 25.8913Z" fill="url(#logo4810_linear_1501_1254)"/>
  <path d="M28.108 20.0586C28.1069 20.0605 28.1058 20.0624 28.1047 20.0643C27.2268 21.585 25.7539 22.5481 24.1498 22.8293C24.239 22.9609 24.3207 23.0949 24.3935 23.231C24.8533 24.0911 25.5512 24.8374 26.4579 25.3609C29.0457 26.855 32.3546 25.9683 33.8487 23.3806C35.1295 21.162 34.6606 18.4134 32.8701 16.7328C32.0835 18.6205 30.2582 19.967 28.108 20.0586Z" fill="url(#logo4811_linear_1501_1254)"/>
  <defs>
    <linearGradient id="logo480_linear_1501_1254" x1="25.2865" y1="9.24274" x2="25.2865" y2="20.0635" gradientUnits="userSpaceOnUse">
      <stop class="ccustom" stop-color="#25136D"/>
      <stop offset="1" class="ccompli1" stop-color="#3D9BA2"/>
    </linearGradient>
    <linearGradient id="logo481_linear_1501_1254" x1="18.8019" y1="6.69435" x2="24.2123" y2="16.0655" gradientUnits="userSpaceOnUse">
      <stop class="ccustom" stop-color="#25136D"/>
      <stop offset="1" class="ccompli1" stop-color="#3D9BA2"/>
    </linearGradient>
    <linearGradient id="logo482_linear_1501_1254" x1="11.9116" y1="7.72962" x2="21.2827" y2="13.14" gradientUnits="userSpaceOnUse">
      <stop class="ccustom" stop-color="#25136D"/>
      <stop offset="1" class="ccompli1" stop-color="#3D9BA2"/>
    </linearGradient>
    <linearGradient id="logo483_linear_1501_1254" x1="6.4617" y1="12.0713" x2="17.2825" y2="12.0713" gradientUnits="userSpaceOnUse">
      <stop class="ccustom" stop-color="#25136D"/>
      <stop offset="1" class="ccompli1" stop-color="#3D9BA2"/>
    </linearGradient>
    <linearGradient id="logo484_linear_1501_1254" x1="3.91251" y1="18.5561" x2="13.2836" y2="13.1457" gradientUnits="userSpaceOnUse">
      <stop class="ccustom" stop-color="#25136D"/>
      <stop offset="1" class="ccompli1" stop-color="#3D9BA2"/>
    </linearGradient>
    <linearGradient id="logo485_linear_1501_1254" x1="4.94677" y1="25.4467" x2="10.3572" y2="16.0756" gradientUnits="userSpaceOnUse">
      <stop class="ccustom" stop-color="#25136D"/>
      <stop offset="1" class="ccompli1" stop-color="#3D9BA2"/>
    </linearGradient>
    <linearGradient id="logo486_linear_1501_1254" x1="9.28766" y1="30.8968" x2="9.28766" y2="20.076" gradientUnits="userSpaceOnUse">
      <stop class="ccustom" stop-color="#25136D"/>
      <stop offset="1" class="ccompli1" stop-color="#3D9BA2"/>
    </linearGradient>
    <linearGradient id="logo487_linear_1501_1254" x1="15.7719" y1="33.4462" x2="10.3615" y2="24.0751" gradientUnits="userSpaceOnUse">
      <stop class="ccustom" stop-color="#25136D"/>
      <stop offset="1" class="ccompli1" stop-color="#3D9BA2"/>
    </linearGradient>
    <linearGradient id="logo488_linear_1501_1254" x1="22.6625" y1="32.4119" x2="13.2914" y2="27.0014" gradientUnits="userSpaceOnUse">
      <stop class="ccustom" stop-color="#25136D"/>
      <stop offset="1" class="ccompli1" stop-color="#3D9BA2"/>
    </linearGradient>
    <linearGradient id="logo489_linear_1501_1254" x1="28.1126" y1="28.071" x2="17.2918" y2="28.071" gradientUnits="userSpaceOnUse">
      <stop class="ccustom" stop-color="#25136D"/>
      <stop offset="1" class="ccompli1" stop-color="#3D9BA2"/>
    </linearGradient>
    <linearGradient id="logo4810_linear_1501_1254" x1="30.662" y1="21.5868" x2="21.2909" y2="26.9972" gradientUnits="userSpaceOnUse">
      <stop class="ccustom" stop-color="#25136D"/>
      <stop offset="1" class="ccompli1" stop-color="#3D9BA2"/>
    </linearGradient>
    <linearGradient id="logo4811_linear_1501_1254" x1="29.6277" y1="14.6962" x2="24.2173" y2="24.0673" gradientUnits="userSpaceOnUse">
      <stop class="ccustom" stop-color="#25136D"/>
      <stop offset="1" class="ccompli1" stop-color="#3D9BA2"/>
    </linearGradient>
  </defs>
</svg>